{
	"asset":{
		"generator":"Khronos glTF Blender I/O v4.0.44",
		"version":"2.0"
	},
	"scene":0,
	"scenes":[
		{
			"name":"Scene",
			"nodes":[
				2
			]
		}
	],
	"nodes":[
		{
			"mesh":0,
			"name":"Object_2",
			"scale":[
				-0.00865850131958723,
				-0.00865850131958723,
				-0.00865850131958723
			]
		},
		{
			"children":[
				0
			],
			"name":"dice v1.stl.cleaner.materialmerger.gles"
		},
		{
			"children":[
				1
			],
			"name":"dice",
			"rotation":[
				-0.70710688829422,
				0,
				0,
				0.7071066498756409
			],
			"scale":[
				57.73504638671875,
				57.73505401611328,
				57.73505401611328
			]
		}
	],
	"materials":[
		{
			"doubleSided":true,
			"name":"Scene_-_Root",
			"pbrMetallicRoughness":{
				"metallicFactor":0,
				"roughnessFactor":0.6000000238418579
			}
		}
	],
	"meshes":[
		{
			"name":"Object_0",
			"primitives":[
				{
					"attributes":{
						"COLOR_0":0,
						"POSITION":1,
						"NORMAL":2
					},
					"indices":3,
					"material":0
				}
			]
		}
	],
	"accessors":[
		{
			"bufferView":0,
			"componentType":5123,
			"count":28145,
			"normalized":true,
			"type":"VEC4"
		},
		{
			"bufferView":1,
			"componentType":5126,
			"count":28145,
			"max":[
				10.80078411102295,
				10.742185592651367,
				20
			],
			"min":[
				-9.19921588897705,
				-9.257814407348633,
				0
			],
			"type":"VEC3"
		},
		{
			"bufferView":2,
			"componentType":5126,
			"count":28145,
			"type":"VEC3"
		},
		{
			"bufferView":3,
			"componentType":5123,
			"count":159180,
			"type":"SCALAR"
		}
	],
	"bufferViews":[
		{
			"buffer":0,
			"byteLength":225160,
			"byteOffset":0,
			"target":34962
		},
		{
			"buffer":0,
			"byteLength":337740,
			"byteOffset":225160,
			"target":34962
		},
		{
			"buffer":0,
			"byteLength":337740,
			"byteOffset":562900,
			"target":34962
		},
		{
			"buffer":0,
			"byteLength":318360,
			"byteOffset":900640,
			"target":34963
		}
	],
	"buffers":[
		{
			"byteLength":1219000,
			"uri":"dice.bin"
		}
	]
}
